<svg width="24" height="24" viewBox="0 0 24 24" fill="none" xmlns="http://www.w3.org/2000/svg">
<path d="M5 1.5C5 0.671573 5.67157 0 6.5 0H22.4999C23.3283 0 23.9999 0.671573 23.9999 1.5C23.9999 2.32843 23.3283 3 22.4999 3H6.5C5.67157 3 5 2.32843 5 1.5Z" fill="white"/>
<path d="M5 8.5C5 7.67157 5.67157 7 6.5 7H22.4999C23.3283 7 23.9999 7.67157 23.9999 8.5C23.9999 9.32843 23.3283 10 22.4999 10H6.5C5.67157 10 5 9.32843 5 8.5Z" fill="white"/>
<path d="M5 15.5C5 14.6716 5.67157 14 6.5 14H10.4999C11.3283 14 11.9999 14.6716 11.9999 15.5C11.9999 16.3284 11.3283 17 10.4999 17H6.5C5.67157 17 5 16.3284 5 15.5Z" fill="white"/>
<path d="M5 22.5C5 21.6716 5.67157 21 6.5 21H10.4999C11.3283 21 11.9999 21.6716 11.9999 22.5C11.9999 23.3284 11.3283 24 10.4999 24H6.5C5.67157 24 5 23.3284 5 22.5Z" fill="white"/>
<path d="M20.0714 15.0714C20.0714 14.4777 19.5937 14 18.9999 14C18.4062 14 17.9285 14.4777 17.9285 15.0714V17.9286H15.0714C14.4776 17.9286 13.9999 18.4062 13.9999 19C13.9999 19.5938 14.4776 20.0714 15.0714 20.0714H17.9285V22.9286C17.9285 23.5223 18.4062 24 18.9999 24C19.5937 24 20.0714 23.5223 20.0714 22.9286V20.0714H22.9285C23.5222 20.0714 23.9999 19.5938 23.9999 19C23.9999 18.4062 23.5222 17.9286 22.9285 17.9286H20.0714V15.0714Z" fill="white"/>
<rect width="3" height="3" rx="1" fill="white"/>
<rect y="7" width="3" height="3" rx="1" fill="white"/>
<rect y="14" width="3" height="3" rx="1" fill="white"/>
<rect y="21" width="3" height="3" rx="1" fill="white"/>
</svg>
