<svg width="24" height="24" viewBox="0 0 24 24" fill="none" xmlns="http://www.w3.org/2000/svg">
<g clip-path="url(#clip0_486_1170)">
<path d="M0.00249728 17.9806L2.93219 17.1307L3.00218 18.2006C2.68222 18.5006 2.34226 18.7505 1.99229 18.9605C1.64233 19.1705 1.18238 19.3705 0.632433 19.5505L0.00249728 17.9706V17.9806ZM0.292468 23.83V22.2702H5.55192V23.83H0.292468ZM2.15227 23.83V17.9406L2.93219 17.1207H4.05208V23.82H2.15227V23.83ZM8.6216 24C8.02166 24 7.51171 23.86 7.09176 23.59C6.6718 23.3201 6.36184 22.9201 6.14186 22.3902C5.92188 21.8602 5.82189 21.2203 5.82189 20.4604C5.82189 19.7004 5.93188 19.0705 6.14186 18.5506C6.36184 18.0306 6.6718 17.6307 7.10176 17.3607C7.52172 17.0907 8.03166 16.9507 8.6416 16.9507C9.25154 16.9507 9.75148 17.0907 10.1714 17.3607C10.5914 17.6307 10.9014 18.0306 11.1213 18.5506C11.3413 19.0705 11.4413 19.7104 11.4413 20.4604C11.4413 21.2103 11.3313 21.8602 11.1113 22.3902C10.8914 22.9201 10.5714 23.3101 10.1514 23.59C9.73149 23.86 9.22154 24 8.6216 24ZM8.6216 22.4502C8.86158 22.4502 9.05156 22.3802 9.20154 22.2502C9.35152 22.1202 9.45151 21.9102 9.52151 21.6202C9.5915 21.3303 9.6215 20.9503 9.6215 20.4704C9.6215 19.9904 9.5915 19.6105 9.53151 19.3205C9.47151 19.0305 9.36152 18.8205 9.22154 18.6906C9.07155 18.5606 8.88158 18.4906 8.6416 18.4906C8.40163 18.4906 8.21164 18.5606 8.06166 18.6906C7.91167 18.8205 7.81169 19.0305 7.74169 19.3205C7.6717 19.6105 7.6417 19.9904 7.6417 20.4704C7.6417 20.9503 7.6717 21.3303 7.7317 21.6202C7.79169 21.9102 7.90168 22.1202 8.04166 22.2502C8.19164 22.3802 8.38163 22.4502 8.6216 22.4502ZM0.442454 8.56161L6.44183 14.561C7.03177 15.1509 7.98167 15.1509 8.56161 14.561C9.15155 13.971 9.15155 13.0211 8.56161 12.4412L5.12197 9.00156H19.5005C20.3304 9.00156 21.0003 9.67149 21.0003 10.5014V17.4407C21.0003 18.2706 20.3304 18.9405 19.5005 18.9405H14.841C14.011 18.9405 13.3411 19.6105 13.3411 20.4404C13.3411 21.2703 14.011 21.9402 14.841 21.9402H19.5005C21.9902 21.9402 24 19.9304 24 17.4407V10.5014C24 8.01166 21.9902 6.00187 19.5005 6.00187H5.12197L8.56161 2.56223C9.15155 1.97229 9.15155 1.02239 8.56161 0.442454C7.97167 -0.147485 7.02177 -0.147485 6.44183 0.442454L0.442454 6.44183C-0.147485 7.03177 -0.147485 7.98167 0.442454 8.56161Z" fill="white"/>
</g>
<defs>
<clipPath id="clip0_486_1170">
<rect width="24" height="24" fill="white"/>
</clipPath>
</defs>
</svg>
