<svg width="24" height="24" viewBox="0 0 24 24" fill="none" xmlns="http://www.w3.org/2000/svg">
<path d="M1.45519 2.59149C1.06519 2.28399 0.498952 2.35524 0.191457 2.74524C-0.116037 3.13523 -0.0447884 3.70147 0.345205 4.00896L22.5448 21.4087C22.9348 21.7162 23.501 21.6449 23.8085 21.2549C24.116 20.8649 24.0448 20.2987 23.6548 19.9912L16.8149 14.6288L18.7911 12.9001C19.1661 12.5701 19.3011 12.0413 19.1249 11.5763C18.9486 11.1113 18.5024 10.8001 17.9999 10.8001H13.8187L16.7024 4.07271C16.9237 3.55897 16.7587 2.95898 16.3049 2.62899C15.8512 2.29899 15.2324 2.32899 14.8087 2.69649L8.56506 8.16389L1.45519 2.59149ZM5.20887 11.0963C4.83388 11.4263 4.69888 11.9551 4.87513 12.4201C5.05137 12.8851 5.49761 13.1963 6.00011 13.1963H9.1388L5.80511 10.5713L5.20887 11.0926V11.0963ZM7.29758 19.9274C7.07634 20.4412 7.24133 21.0412 7.69508 21.3712C8.14882 21.7012 8.76756 21.6712 9.1913 21.3037L14.04 17.0625L9.91879 13.815L7.29758 19.9274Z" fill="white"/>
</svg>
