<svg width="24" height="24" viewBox="0 0 24 24" fill="none" xmlns="http://www.w3.org/2000/svg">
<path d="M17.8781 2.09098C18.1546 1.44881 17.9484 0.698837 17.3812 0.286351C16.8141 -0.126134 16.0406 -0.0886353 15.511 0.370724L3.5114 10.8704C3.04266 11.2828 2.87392 11.9438 3.09422 12.525C3.31453 13.1062 3.87701 13.4999 4.50043 13.4999H9.7268L6.12224 21.909C5.84569 22.5512 6.05193 23.3012 6.6191 23.7136C7.18627 24.1261 7.95968 24.0886 8.48935 23.6293L20.4889 13.1296C20.9577 12.7172 21.1264 12.0562 20.9061 11.475C20.6858 10.8938 20.128 10.5047 19.4999 10.5047H14.2735L17.8781 2.09098Z" fill="white"/>
</svg>
