<svg width="24" height="24" viewBox="0 0 24 24" fill="none" xmlns="http://www.w3.org/2000/svg">
<path fill-rule="evenodd" clip-rule="evenodd" d="M12 24C8.8174 24 5.76515 22.7357 3.51472 20.4853C1.26428 18.2348 0 15.1826 0 12C0 8.8174 1.26428 5.76515 3.51472 3.51472C5.76515 1.26428 8.8174 0 12 0C15.1826 0 18.2348 1.26428 20.4853 3.51472C22.7357 5.76515 24 8.8174 24 12C24 15.1826 22.7357 18.2348 20.4853 20.4853C18.2348 22.7357 15.1826 24 12 24ZM13.1241 10.8697H16.2398C16.8629 10.8697 17.3668 11.3735 17.3634 11.9933C17.3601 12.6131 16.8596 13.1203 16.2398 13.117H13.1241H10.8768H7.76115C7.13801 13.117 6.6342 12.6131 6.63752 11.9933C6.64083 11.3735 7.14133 10.8664 7.76115 10.8697H10.8768H13.1241Z" fill="white"/>
</svg>
