<svg width="24" height="24" viewBox="0 0 24 24" fill="none" xmlns="http://www.w3.org/2000/svg">
<g clip-path="url(#clip0_825_4408)">
<path d="M23.5605 0.439475C22.9746 -0.146492 22.0229 -0.146492 21.437 0.439475L15.4367 6.43977L14.696 5.69911C13.9835 4.98657 12.8913 4.83656 12.01 5.32409L10.4864 6.16788L17.8321 13.5042L18.6759 11.9807C19.1634 11.1041 19.0087 10.0071 18.3009 9.29459L17.5602 8.55393L23.5605 2.55364C24.1465 1.96767 24.1465 1.01607 23.5605 0.430099V0.439475ZM8.78949 7.1148L0.768788 11.5728C0.295327 11.8353 0 12.3369 0 12.8807C0 13.2792 0.159383 13.6589 0.435959 13.9401L2.46106 15.9652C2.5595 16.0637 2.70951 16.1012 2.84545 16.0543L5.28776 15.2386C5.58309 15.1402 5.85966 15.4215 5.76122 15.7121L4.94555 18.1544C4.89868 18.2903 4.93618 18.4357 5.03462 18.5388L10.0646 23.564C10.3458 23.8453 10.7255 24 11.124 24C11.6678 24 12.1693 23.7047 12.4319 23.2312L16.8899 15.2105L8.78949 7.1148Z" fill="white"/>
</g>
<defs>
<clipPath id="clip0_825_4408">
<rect width="24" height="24" fill="white"/>
</clipPath>
</defs>
</svg>
