<svg width="24" height="24" viewBox="0 0 24 24" fill="none" xmlns="http://www.w3.org/2000/svg">
<path d="M11.9979 2.81323C8.63154 2.81323 5.93594 4.32248 3.97361 6.1188C2.02378 7.89873 0.719729 10.0314 0.103116 11.4955C-0.034372 11.8195 -0.034372 12.1804 0.103116 12.5044C0.719729 13.9685 2.02378 16.1011 3.97361 17.8811C5.93594 19.6774 8.63154 21.1866 11.9979 21.1866C15.3643 21.1866 18.0599 19.6774 20.0222 17.8811C21.9721 16.097 23.2761 13.9685 23.8969 12.5044C24.0344 12.1804 24.0344 11.8195 23.8969 11.4955C23.2761 10.0314 21.9721 7.89873 20.0222 6.1188C18.0599 4.32248 15.3643 2.81323 11.9979 2.81323ZM5.99844 11.9999C5.99844 10.4336 6.63052 8.93149 7.75564 7.82395C8.88077 6.71641 10.4068 6.0942 11.9979 6.0942C13.5891 6.0942 15.1151 6.71641 16.2402 7.82395C17.3653 8.93149 17.9974 10.4336 17.9974 11.9999C17.9974 13.5662 17.3653 15.0684 16.2402 16.1759C15.1151 17.2835 13.5891 17.9057 11.9979 17.9057C10.4068 17.9057 8.88077 17.2835 7.75564 16.1759C6.63052 15.0684 5.99844 13.5662 5.99844 11.9999ZM11.9979 9.37516C11.9979 10.8229 10.8022 11.9999 9.33148 11.9999C9.03567 11.9999 8.75237 11.9507 8.48572 11.8646C8.25658 11.7908 7.98993 11.9302 7.99826 12.1681C8.01076 12.4511 8.05243 12.7341 8.13159 13.017C8.70237 15.1169 10.898 16.3636 13.0312 15.8018C15.1643 15.2399 16.4309 13.0786 15.8601 10.9787C15.3976 9.27673 13.8686 8.1325 12.1687 8.06278C11.9271 8.05457 11.7854 8.31295 11.8604 8.54262C11.9479 8.8051 11.9979 9.08398 11.9979 9.37516Z" fill="white"/>
</svg>
