<svg width="24" height="24" viewBox="0 0 24 24" fill="none" xmlns="http://www.w3.org/2000/svg">
<path d="M8.55417 4C7.84583 4 7.16667 4.27917 6.66667 4.77917L0.391667 11.0583C0.141667 11.3083 0 11.6458 0 12C0 12.3542 0.141667 12.6917 0.391667 12.9417L6.66667 19.2208C7.16667 19.7208 7.84583 20 8.55417 20H21.3333C22.8042 20 24 18.8042 24 17.3333V6.66667C24 5.19583 22.8042 4 21.3333 4H8.55417ZM22 6.66667V17.3333C22 17.7 21.7 18 21.3333 18H8.55417C8.37917 18 8.20833 17.9292 8.08333 17.8042L2.275 12L8.07917 6.19583C8.20417 6.07083 8.375 6 8.55 6H21.3333C21.7 6 22 6.3 22 6.66667ZM18.0417 8.625C17.65 8.23333 17.0167 8.23333 16.6292 8.625L14.6708 10.5833L12.7125 8.625C12.3208 8.23333 11.6875 8.23333 11.3 8.625C10.9125 9.01667 10.9083 9.65 11.3 10.0375L13.2583 11.9958L11.3 13.9542C10.9083 14.3458 10.9083 14.9792 11.3 15.3667C11.6917 15.7542 12.325 15.7583 12.7125 15.3667L14.6708 13.4083L16.6292 15.3667C17.0208 15.7583 17.6542 15.7583 18.0417 15.3667C18.4292 14.975 18.4333 14.3417 18.0417 13.9542L16.0833 11.9958L18.0417 10.0375C18.4333 9.64583 18.4333 9.0125 18.0417 8.625Z" fill="white"/>
</svg>
