<svg width="24" height="24" viewBox="0 0 24 24" fill="none" xmlns="http://www.w3.org/2000/svg">
<path d="M2.23125 13.8432L10.7016 21.751C11.0531 22.0792 11.5172 22.262 12 22.262C12.4828 22.262 12.9469 22.0792 13.2984 21.751L21.7687 13.8432C23.1938 12.5167 24 10.6557 24 8.71041V8.43853C24 5.16197 21.6328 2.36822 18.4031 1.82916C16.2656 1.47291 14.0906 2.17134 12.5625 3.69947L12 4.26197L11.4375 3.69947C9.90938 2.17134 7.73438 1.47291 5.59688 1.82916C2.36719 2.36822 0 5.16197 0 8.43853V8.71041C0 10.6557 0.80625 12.5167 2.23125 13.8432Z" fill="white"/>
</svg>
