<svg width="24" height="24" viewBox="0 0 24 24" fill="none" xmlns="http://www.w3.org/2000/svg">
<g clip-path="url(#clip0_486_3008)">
<path d="M12.6587 22.1502L14.5585 21.8802C14.5785 22.0202 14.6285 22.1502 14.7085 22.2602C14.7785 22.3702 14.8884 22.4602 15.0184 22.5202C15.1484 22.5801 15.2984 22.6101 15.4784 22.6101C15.7484 22.6101 15.9483 22.5402 16.0683 22.3902C16.1983 22.2402 16.2583 22.0602 16.2583 21.8402C16.2583 21.6003 16.1983 21.4203 16.0883 21.3003C15.9683 21.1803 15.7984 21.1203 15.5584 21.1203H14.4285V19.9104H15.5784C15.7984 19.9104 15.9583 19.8604 16.0383 19.7504C16.1183 19.6505 16.1583 19.4705 16.1583 19.2105C16.1583 18.9505 16.0983 18.7705 15.9783 18.6206C15.8583 18.4706 15.6884 18.4006 15.4684 18.4006C15.2184 18.4006 15.0184 18.4706 14.8884 18.6206C14.7585 18.7705 14.6785 18.9705 14.6685 19.2305L12.8487 19.1005C12.8987 18.6606 13.0286 18.2806 13.2386 17.9706C13.4386 17.6607 13.7286 17.4207 14.0985 17.2507C14.4685 17.0907 14.9184 17.0007 15.4684 17.0007C16.3083 17.0007 16.9382 17.1507 17.3682 17.4407C17.7881 17.7307 18.0081 18.1906 18.0081 18.8205C18.0081 19.3805 17.7881 19.7804 17.3482 20.0104C16.9082 20.2404 16.2883 20.3704 15.4984 20.4004L16.1983 20.1304V20.8503L15.4984 20.6503C16.1983 20.6503 16.7483 20.7003 17.1382 20.7903C17.5282 20.8803 17.8081 21.0403 17.9681 21.2503C18.1281 21.4603 18.2081 21.7502 18.2081 22.1002C18.2081 22.4502 18.1081 22.8001 17.9081 23.0701C17.7082 23.3501 17.4082 23.56 16.9982 23.71C16.5983 23.86 16.0883 23.93 15.4884 23.93C14.9484 23.93 14.4785 23.87 14.0785 23.76C13.6686 23.65 13.3486 23.4601 13.1086 23.2001C12.8687 22.9401 12.7187 22.5801 12.6787 22.1302L12.6587 22.1502ZM21.1778 24C20.5779 24 20.0679 23.86 19.648 23.59C19.228 23.3201 18.918 22.9201 18.6981 22.3902C18.4781 21.8602 18.3781 21.2203 18.3781 20.4604C18.3781 19.7004 18.4881 19.0705 18.6981 18.5506C18.918 18.0306 19.228 17.6307 19.658 17.3607C20.0779 17.0907 20.5879 16.9507 21.1978 16.9507C21.8077 16.9507 22.3077 17.0907 22.7276 17.3607C23.1476 17.6307 23.4576 18.0306 23.6775 18.5506C23.8975 19.0705 23.9975 19.7104 23.9975 20.4604C23.9975 21.2103 23.8875 21.8602 23.6675 22.3902C23.4476 22.9201 23.1276 23.3101 22.7076 23.59C22.2877 23.86 21.7777 24 21.1778 24ZM21.1778 22.4502C21.4178 22.4502 21.6077 22.3802 21.7577 22.2502C21.9077 22.1202 22.0077 21.9102 22.0777 21.6202C22.1477 21.3303 22.1777 20.9503 22.1777 20.4704C22.1777 19.9904 22.1477 19.6105 22.0877 19.3205C22.0277 19.0305 21.9177 18.8205 21.7777 18.6906C21.6277 18.5606 21.4378 18.4906 21.1978 18.4906C20.9578 18.4906 20.7678 18.5606 20.6179 18.6906C20.4679 18.8205 20.3679 19.0305 20.2979 19.3205C20.2279 19.6105 20.1979 19.9904 20.1979 20.4704C20.1979 20.9503 20.2279 21.3303 20.2879 21.6202C20.3479 21.9102 20.4579 22.1202 20.5979 22.2502C20.7478 22.3802 20.9378 22.4502 21.1778 22.4502ZM23.5575 6.44183L17.5582 0.442454C16.9682 -0.147485 16.0183 -0.147485 15.4384 0.442454C14.8485 1.03239 14.8485 1.98229 15.4384 2.56223L18.878 6.00187H4.49953C2.00979 6.00187 0 8.01166 0 10.5014V17.4407C0 19.9304 2.00979 21.9402 4.49953 21.9402H9.15905C9.98896 21.9402 10.6589 21.2703 10.6589 20.4404C10.6589 19.6105 9.98896 18.9405 9.15905 18.9405H4.49953C3.66962 18.9405 2.99969 18.2706 2.99969 17.4407V10.5014C2.99969 9.67149 3.66962 9.00156 4.49953 9.00156H18.878L15.4384 12.4412C14.8485 13.0311 14.8485 13.981 15.4384 14.561C16.0283 15.1509 16.9782 15.1509 17.5582 14.561L23.5575 8.56161C24.1475 7.97167 24.1475 7.02177 23.5575 6.44183Z" fill="white"/>
</g>
<defs>
<clipPath id="clip0_486_3008">
<rect width="24" height="24" fill="white"/>
</clipPath>
</defs>
</svg>
