<svg width="24" height="24" viewBox="0 0 24 24" fill="none" xmlns="http://www.w3.org/2000/svg">
<path d="M0 5.4375C0 3.98965 1.19583 2.8125 2.66667 2.8125H21.3333C22.8042 2.8125 24 3.98965 24 5.4375V18.5625C24 20.0104 22.8042 21.1875 21.3333 21.1875H2.66667C1.19583 21.1875 0 20.0104 0 18.5625V5.4375ZM12.6667 9.04688V14.9531C12.6667 15.4986 13.1125 15.9375 13.6667 15.9375H16C18.2083 15.9375 20 14.1738 20 12C20 9.82617 18.2083 8.0625 16 8.0625H13.6667C13.1125 8.0625 12.6667 8.50137 12.6667 9.04688ZM16 10.0312C17.1042 10.0312 18 10.9131 18 12C18 13.0869 17.1042 13.9688 16 13.9688H14.6667V10.0312H16ZM6.66667 9.04688C6.66667 8.50137 6.22083 8.0625 5.66667 8.0625C5.1125 8.0625 4.66667 8.50137 4.66667 9.04688V12V14.9531C4.66667 15.4986 5.1125 15.9375 5.66667 15.9375C6.22083 15.9375 6.66667 15.4986 6.66667 14.9531V12.9844H9.33333V14.9531C9.33333 15.4986 9.77917 15.9375 10.3333 15.9375C10.8875 15.9375 11.3333 15.4986 11.3333 14.9531V12V9.04688C11.3333 8.50137 10.8875 8.0625 10.3333 8.0625C9.77917 8.0625 9.33333 8.50137 9.33333 9.04688V11.0156H6.66667V9.04688Z" fill="white"/>
</svg>
