<svg width="24" height="24" viewBox="0 0 24 24" fill="none" xmlns="http://www.w3.org/2000/svg">
<path d="M10.5844 21.691L10.4672 21.5831L2.25469 13.9566C0.815625 12.6206 0 10.7456 0 8.78158V8.62689C0 5.32689 2.34375 2.49564 5.5875 1.87689C7.43437 1.52064 9.32344 1.9472 10.8281 3.00658C11.25 3.30658 11.6438 3.65345 12 4.05189C12.1969 3.82689 12.4078 3.62064 12.6328 3.42845C12.8062 3.27845 12.9844 3.13783 13.1719 3.00658C14.6766 1.9472 16.5656 1.52064 18.4125 1.8722C21.6562 2.49095 24 5.32689 24 8.62689V8.78158C24 10.7456 23.1844 12.6206 21.7453 13.9566L13.5328 21.5831L13.4156 21.691C13.0313 22.0472 12.525 22.2488 12 22.2488C11.475 22.2488 10.9688 22.0519 10.5844 21.691ZM11.2078 6.54095C11.1891 6.52689 11.175 6.50814 11.1609 6.48939L10.3266 5.55189L10.3219 5.5472C9.23906 4.33314 7.60312 3.78001 6.00937 4.0847C3.825 4.50189 2.25 6.40501 2.25 8.62689V8.78158C2.25 10.1175 2.80781 11.3972 3.7875 12.3066L12 19.9331L20.2125 12.3066C21.1922 11.3972 21.75 10.1175 21.75 8.78158V8.62689C21.75 6.4097 20.175 4.50189 17.9953 4.0847C16.4016 3.78001 14.7609 4.33783 13.6828 5.5472C13.6828 5.5472 13.6828 5.5472 13.6781 5.55189C13.6734 5.55658 13.6781 5.55189 13.6734 5.55658L12.8391 6.49408C12.825 6.51283 12.8062 6.52689 12.7922 6.54564C12.5812 6.75658 12.2953 6.87376 12 6.87376C11.7047 6.87376 11.4188 6.75658 11.2078 6.54564V6.54095Z" fill="white"/>
</svg>
