<svg width="24" height="24" viewBox="0 0 24 24" fill="none" xmlns="http://www.w3.org/2000/svg">
<path d="M2.23125 13.8433L10.7016 21.7512C11.0531 22.0793 11.5172 22.2621 12 22.2621C12.4828 22.2621 12.9469 22.0793 13.2984 21.7512L21.7687 13.8433C23.1937 12.5168 24 10.6558 24 8.71053V8.43865C24 5.16209 21.6328 2.36834 18.4031 1.82928C16.2656 1.47303 14.0906 2.17147 12.5625 3.69959L12 4.26209L11.4375 3.69959C9.90938 2.17147 7.73438 1.47303 5.59688 1.82928C2.36719 2.36834 0 5.16209 0 8.43865V8.71053C0 10.6558 0.80625 12.5168 2.23125 13.8433Z" fill="white"/>
</svg>
