<svg width="24" height="24" viewBox="0 0 24 24" fill="none" xmlns="http://www.w3.org/2000/svg">
<g clip-path="url(#clip0_513_4513)">
<path d="M23.9916 11.9793C23.9916 12.7293 23.3666 13.3168 22.6583 13.3168H21.325L21.3542 19.9918C21.3542 20.1043 21.3458 20.2168 21.3333 20.3293V21.0043C21.3333 21.9252 20.5875 22.671 19.6666 22.671H19C18.9541 22.671 18.9083 22.671 18.8625 22.6668C18.8041 22.671 18.7458 22.671 18.6875 22.671L17.3333 22.6668H16.3333C15.4125 22.6668 14.6666 21.921 14.6666 21.0002V20.0002V17.3335C14.6666 16.596 14.0708 16.0002 13.3333 16.0002H10.6666C9.92915 16.0002 9.33332 16.596 9.33332 17.3335V20.0002V21.0002C9.33332 21.921 8.58748 22.6668 7.66665 22.6668H6.66665H5.33748C5.27498 22.6668 5.21248 22.6627 5.14998 22.6585C5.09998 22.6627 5.04998 22.6668 4.99998 22.6668H4.33332C3.41248 22.6668 2.66665 21.921 2.66665 21.0002V16.3335C2.66665 16.296 2.66665 16.2543 2.67082 16.2168V13.3127H1.33748C0.587484 13.3127 0.00415039 12.7293 0.00415039 11.9752C0.00415039 11.6002 0.12915 11.2668 0.420817 10.9752L11.1 1.66683C11.3916 1.37516 11.725 1.3335 12.0166 1.3335C12.3083 1.3335 12.6416 1.41683 12.8916 1.62516L23.5333 10.9793C23.8666 11.271 24.0333 11.6043 23.9916 11.9793Z" fill="white"/>
</g>
<defs>
<clipPath id="clip0_513_4513">
<rect width="24" height="21.3333" fill="white" transform="translate(0 1.3335)"/>
</clipPath>
</defs>
</svg>
