<svg width="24" height="24" viewBox="0 0 24 24" fill="none" xmlns="http://www.w3.org/2000/svg">
<path d="M12 2.5C12.45 2.5 12.8287 2.82656 12.8925 3.26816L14.4675 14.5643L15.9113 5.62461C15.9825 5.19043 16.3613 4.87129 16.8075 4.875C17.2538 4.87871 17.6287 5.20527 17.6925 5.63945L18.75 12.9611L19.5188 9.15371C19.6013 8.75293 19.9425 8.45977 20.355 8.4375C20.7675 8.41523 21.1388 8.675 21.2625 9.06465L22.2638 12.2969H23.1C23.5988 12.2969 24 12.6939 24 13.1875C24 13.6811 23.5988 14.0781 23.1 14.0781H21.6C21.2063 14.0781 20.8575 13.8221 20.7412 13.451L20.5875 12.9537L19.485 18.4088C19.3988 18.8355 19.0163 19.1361 18.5775 19.125C18.1388 19.1139 17.775 18.791 17.7113 18.3605L16.7513 11.7143L15.2888 20.7504C15.2175 21.1846 14.835 21.5037 14.3888 21.5C13.9425 21.4963 13.5675 21.1697 13.5075 20.7318L12 9.90703L10.4925 20.7318C10.4325 21.1697 10.0575 21.4963 9.61125 21.5C9.165 21.5037 8.7825 21.1846 8.71125 20.7504L7.24875 11.7143L6.2925 18.3605C6.22875 18.791 5.865 19.1139 5.42625 19.125C4.9875 19.1361 4.605 18.8355 4.51875 18.4088L3.41625 12.9537L3.2625 13.451C3.1425 13.8221 2.79375 14.0781 2.4 14.0781H0.9C0.40125 14.0781 0 13.6811 0 13.1875C0 12.6939 0.40125 12.2969 0.9 12.2969H1.73625L2.74125 9.06465C2.86125 8.675 3.23625 8.41523 3.64875 8.4375C4.06125 8.45977 4.40625 8.75293 4.485 9.15371L5.25375 12.9611L6.3075 5.63945C6.37125 5.20527 6.74625 4.87871 7.1925 4.875C7.63875 4.87129 8.0175 5.19043 8.08875 5.62461L9.5325 14.5643L11.1075 3.26816C11.1713 2.82656 11.55 2.5 12 2.5Z" fill="white"/>
</svg>
