<svg width="24" height="24" viewBox="0 0 24 24" fill="none" xmlns="http://www.w3.org/2000/svg">
<path d="M11.9998 17.7778C11.1747 17.7778 10.3833 18.1056 9.7999 18.689C9.21645 19.2724 8.88867 20.0638 8.88867 20.8889C8.88867 21.714 9.21645 22.5053 9.7999 23.0888C10.3833 23.6722 11.1747 24 11.9998 24C12.8249 24 13.6162 23.6722 14.1997 23.0888C14.7831 22.5053 15.1109 21.714 15.1109 20.8889C15.1109 20.0638 14.7831 19.2724 14.1997 18.689C13.6162 18.1056 12.8249 17.7778 11.9998 17.7778ZM11.9998 8.88889C11.1747 8.88889 10.3833 9.21667 9.7999 9.80011C9.21645 10.3836 8.88867 11.1749 8.88867 12C8.88867 12.8251 9.21645 13.6164 9.7999 14.1999C10.3833 14.7833 11.1747 15.1111 11.9998 15.1111C12.8249 15.1111 13.6162 14.7833 14.1997 14.1999C14.7831 13.6164 15.1109 12.8251 15.1109 12C15.1109 11.1749 14.7831 10.3836 14.1997 9.80011C13.6162 9.21667 12.8249 8.88889 11.9998 8.88889ZM15.1109 3.11111C15.1109 2.28599 14.7831 1.49467 14.1997 0.911223C13.6162 0.327777 12.8249 0 11.9998 0C11.1747 0 10.3833 0.327777 9.7999 0.911223C9.21645 1.49467 8.88867 2.28599 8.88867 3.11111C8.88867 3.93623 9.21645 4.72755 9.7999 5.311C10.3833 5.89445 11.1747 6.22222 11.9998 6.22222C12.8249 6.22222 13.6162 5.89445 14.1997 5.311C14.7831 4.72755 15.1109 3.93623 15.1109 3.11111Z" fill="white"/>
</svg>
