<svg width="24" height="24" viewBox="0 0 24 24" fill="none" xmlns="http://www.w3.org/2000/svg">
<g clip-path="url(#clip0_513_4547)">
<path d="M0 4.5C0 2.84531 1.34531 1.5 3 1.5H21C22.6547 1.5 24 2.84531 24 4.5V19.5C24 21.1547 22.6547 22.5 21 22.5H3C1.34531 22.5 0 21.1547 0 19.5V4.5ZM2.25 17.25V18.75C2.25 19.1625 2.5875 19.5 3 19.5H4.5C4.9125 19.5 5.25 19.1625 5.25 18.75V17.25C5.25 16.8375 4.9125 16.5 4.5 16.5H3C2.5875 16.5 2.25 16.8375 2.25 17.25ZM19.5 16.5C19.0875 16.5 18.75 16.8375 18.75 17.25V18.75C18.75 19.1625 19.0875 19.5 19.5 19.5H21C21.4125 19.5 21.75 19.1625 21.75 18.75V17.25C21.75 16.8375 21.4125 16.5 21 16.5H19.5ZM2.25 11.25V12.75C2.25 13.1625 2.5875 13.5 3 13.5H4.5C4.9125 13.5 5.25 13.1625 5.25 12.75V11.25C5.25 10.8375 4.9125 10.5 4.5 10.5H3C2.5875 10.5 2.25 10.8375 2.25 11.25ZM19.5 10.5C19.0875 10.5 18.75 10.8375 18.75 11.25V12.75C18.75 13.1625 19.0875 13.5 19.5 13.5H21C21.4125 13.5 21.75 13.1625 21.75 12.75V11.25C21.75 10.8375 21.4125 10.5 21 10.5H19.5ZM2.25 5.25V6.75C2.25 7.1625 2.5875 7.5 3 7.5H4.5C4.9125 7.5 5.25 7.1625 5.25 6.75V5.25C5.25 4.8375 4.9125 4.5 4.5 4.5H3C2.5875 4.5 2.25 4.8375 2.25 5.25ZM19.5 4.5C19.0875 4.5 18.75 4.8375 18.75 5.25V6.75C18.75 7.1625 19.0875 7.5 19.5 7.5H21C21.4125 7.5 21.75 7.1625 21.75 6.75V5.25C21.75 4.8375 21.4125 4.5 21 4.5H19.5ZM7.5 6V9C7.5 9.82969 8.17031 10.5 9 10.5H15C15.8297 10.5 16.5 9.82969 16.5 9V6C16.5 5.17031 15.8297 4.5 15 4.5H9C8.17031 4.5 7.5 5.17031 7.5 6ZM9 13.5C8.17031 13.5 7.5 14.1703 7.5 15V18C7.5 18.8297 8.17031 19.5 9 19.5H15C15.8297 19.5 16.5 18.8297 16.5 18V15C16.5 14.1703 15.8297 13.5 15 13.5H9Z" fill="white"/>
</g>
<defs>
<clipPath id="clip0_513_4547">
<rect width="24" height="24" fill="white"/>
</clipPath>
</defs>
</svg>
