<svg width="24" height="24" viewBox="0 0 24 24" fill="none" xmlns="http://www.w3.org/2000/svg">
<path d="M5.2826 23.5362C4.68896 24.0299 3.85786 24.1424 3.15174 23.8112C2.44562 23.48 2.00195 22.7739 2.00195 21.999V2.00268C2.00195 1.22782 2.45187 0.521701 3.15174 0.190512C3.85162 -0.140678 4.68271 -0.0344472 5.2826 0.465461L17.2804 10.4636L17.999 11.0635V2.00268C17.999 0.896633 18.8926 0.00304584 19.9987 0.00304584C21.1047 0.00304584 21.9983 0.896633 21.9983 2.00268V21.999C21.9983 23.1051 21.1047 23.9987 19.9987 23.9987C18.8926 23.9987 17.999 23.1051 17.999 21.999V12.9382L17.2804 13.5381L5.2826 23.5362Z" fill="white"/>
</svg>
