<svg width="24" height="24" viewBox="0 0 24 24" fill="none" xmlns="http://www.w3.org/2000/svg">
<rect x="16" y="16" width="6" height="6" fill="white"/>
<path d="M19 24C20.3261 24 21.5979 23.4732 22.5355 22.5355C23.4732 21.5979 24 20.3261 24 19C24 17.6739 23.4732 16.4021 22.5355 15.4645C21.5979 14.5268 20.3261 14 19 14C17.6739 14 16.4021 14.5268 15.4645 15.4645C14.5268 16.4021 14 17.6739 14 19C14 20.3261 14.5268 21.5979 15.4645 22.5355C16.4021 23.4732 17.6739 24 19 24ZM17.418 17.418C17.6016 17.2344 17.8984 17.2344 18.0801 17.418L18.998 18.3359L19.916 17.418C20.0996 17.2344 20.3965 17.2344 20.5781 17.418C20.7598 17.6016 20.7617 17.8984 20.5781 18.0801L19.6602 18.998L20.5781 19.916C20.7617 20.0996 20.7617 20.3965 20.5781 20.5781C20.3945 20.7598 20.0977 20.7617 19.916 20.5781L18.998 19.6602L18.0801 20.5781C17.8965 20.7617 17.5996 20.7617 17.418 20.5781C17.2363 20.3945 17.2344 20.0977 17.418 19.916L18.3359 18.998L17.418 18.0801C17.2344 17.8965 17.2344 17.5996 17.418 17.418Z" fill="#FC5F5F"/>
<path d="M5 1.5C5 0.671573 5.67157 0 6.5 0L22.5 0C23.3284 0 24 0.671573 24 1.5C24 2.32843 23.3284 3 22.5 3H6.5C5.67157 3 5 2.32843 5 1.5Z" fill="white"/>
<path d="M5 8.5C5 7.67157 5.67157 7 6.5 7H22.5C23.3284 7 24 7.67157 24 8.5C24 9.32843 23.3284 10 22.5 10H6.5C5.67157 10 5 9.32843 5 8.5Z" fill="white"/>
<path d="M5 15.5C5 14.6716 5.67157 14 6.5 14H10.5C11.3284 14 12 14.6716 12 15.5C12 16.3284 11.3284 17 10.5 17H6.5C5.67157 17 5 16.3284 5 15.5Z" fill="white"/>
<path d="M5 22.5C5 21.6716 5.67157 21 6.5 21H10.5C11.3284 21 12 21.6716 12 22.5C12 23.3284 11.3284 24 10.5 24H6.5C5.67157 24 5 23.3284 5 22.5Z" fill="white"/>
<path d="M0 1C0 0.447715 0.447715 0 1 0H2C2.55228 0 3 0.447715 3 1V2C3 2.55228 2.55228 3 2 3H1C0.447715 3 0 2.55228 0 2V1Z" fill="white"/>
<path d="M0 8C0 7.44772 0.447715 7 1 7H2C2.55228 7 3 7.44772 3 8V9C3 9.55228 2.55228 10 2 10H1C0.447715 10 0 9.55228 0 9V8Z" fill="white"/>
<path d="M0 15C0 14.4477 0.447715 14 1 14H2C2.55228 14 3 14.4477 3 15V16C3 16.5523 2.55228 17 2 17H1C0.447715 17 0 16.5523 0 16V15Z" fill="white"/>
<path d="M0 22C0 21.4477 0.447715 21 1 21H2C2.55228 21 3 21.4477 3 22V23C3 23.5523 2.55228 24 2 24H1C0.447715 24 0 23.5523 0 23V22Z" fill="white"/>
</svg>
