<svg width="24" height="24" viewBox="0 0 24 24" fill="none" xmlns="http://www.w3.org/2000/svg">
<path d="M18.7176 23.5362C19.3113 24.0299 20.1424 24.1424 20.8485 23.8112C21.5546 23.48 21.9983 22.7739 21.9983 21.999V2.00268C21.9983 1.22782 21.5484 0.521701 20.8485 0.190512C20.1486 -0.140678 19.3175 -0.0344472 18.7176 0.465461L6.71984 10.4636L6.00122 11.0635V2.00268C6.00122 0.896633 5.10764 0.00304584 4.00159 0.00304584C2.89554 0.00304584 2.00195 0.896633 2.00195 2.00268V21.999C2.00195 23.1051 2.89554 23.9987 4.00159 23.9987C5.10764 23.9987 6.00122 23.1051 6.00122 21.999V12.9382L6.71984 13.5381L18.7176 23.5362Z" fill="white"/>
</svg>
