<svg width="24" height="24" viewBox="0 0 24 24" fill="none" xmlns="http://www.w3.org/2000/svg">
<g clip-path="url(#clip0_778_3803)">
<path d="M23.6548 19.9913L20.3736 17.4189C21.1161 16.8751 21.5999 15.9939 21.5999 15.0002V9.00025C21.5999 7.34278 20.2574 6.0003 18.5999 6.0003H5.80512L1.45519 2.5916C1.06519 2.28411 0.498953 2.35536 0.191458 2.74535C-0.116037 3.13535 -0.0447885 3.70159 0.345205 4.00908L22.5449 21.4088C22.9349 21.7163 23.5011 21.6451 23.8086 21.2551C24.1161 20.8651 24.0448 20.2988 23.6548 19.9913ZM19.1999 15.0002C19.1999 15.3302 18.9299 15.6002 18.5999 15.6002H18.0524L13.2349 11.8247V8.40026H18.5999C18.9299 8.40026 19.1999 8.67026 19.1999 9.00025V15.0002Z" fill="white"/>
<path d="M12.1864 15.6002L3.59753 8.83188V8.83301L1.70268 7.33865C1.38394 7.8149 1.20019 8.38489 1.20019 8.99988V14.9998C1.20019 16.6573 2.54267 17.9997 4.20014 17.9997H15.2325L12.1875 15.5998L12.1864 15.6002Z" fill="white"/>
</g>
<defs>
<clipPath id="clip0_778_3803">
<rect width="24" height="24" fill="white"/>
</clipPath>
</defs>
</svg>
