<svg width="24" height="24" viewBox="0 0 24 24" fill="none" xmlns="http://www.w3.org/2000/svg">
<path d="M1.815 2.95506L1.1025 2.40381L0 3.82506L0.7125 4.37631L22.1812 21.0451L22.8937 21.5963L23.9963 20.1751L23.2837 19.6238L19.65 16.8038C21.2212 15.1538 22.2825 13.2826 22.8 12.0001C21.675 9.19881 17.94 3.60006 12 3.60006C9.49125 3.60006 7.38 4.59756 5.68875 5.96256L1.815 2.95506ZM8.34375 8.02506C9.30375 7.14006 10.59 6.60006 12 6.60006C14.9812 6.60006 17.4 9.01881 17.4 12.0001C17.4 12.9263 17.1675 13.7963 16.7587 14.5576L15.3075 13.4288C15.4987 12.9901 15.6037 12.5063 15.6037 12.0001C15.6037 10.0126 13.9912 8.40006 12.0037 8.40006C11.7637 8.40006 11.5275 8.42256 11.2987 8.46756L11.7337 10.6501L8.34375 8.02506ZM16.6837 19.1476L13.9875 17.0213C13.3725 17.2651 12.7012 17.4001 12 17.4001C9.01875 17.4001 6.6 14.9813 6.6 12.0001C6.6 11.7413 6.61875 11.4901 6.6525 11.2426L3.21375 8.53131C2.2575 9.79131 1.57875 11.0551 1.2 12.0001C2.325 14.8013 6.06 20.4001 12 20.4001C13.7587 20.4001 15.3225 19.9088 16.6837 19.1476ZM12.18 15.5963L8.46375 12.6676C8.775 14.3363 10.2412 15.6001 12 15.6001C12.06 15.6001 12.12 15.6001 12.18 15.5963Z" fill="white"/>
</svg>
