<svg width="24" height="24" viewBox="0 0 24 24" fill="none" xmlns="http://www.w3.org/2000/svg">
<path d="M13.0598 23.5606C12.474 24.1465 11.5226 24.1465 10.9368 23.5606L4.93803 17.5619C4.50687 17.1307 4.38033 16.4886 4.61466 15.9263C4.84898 15.3639 5.39262 14.9983 6.00187 14.9983H17.9994C18.604 14.9983 19.1523 15.3639 19.3867 15.9263C19.621 16.4886 19.4898 17.1307 19.0633 17.5619L13.0645 23.5606H13.0598Z" fill="white"/>
<path d="M10.9406 0.439364C11.5264 -0.146455 12.4777 -0.146455 13.0636 0.439364L19.0623 6.43814C19.4935 6.86931 19.62 7.51136 19.3857 8.07375C19.1514 8.63613 18.6077 9.00168 17.9985 9.00168H6.00093C5.39637 9.00168 4.84804 8.63613 4.61371 8.07375C4.37939 7.51136 4.51061 6.86931 4.93708 6.43814L10.9359 0.439364H10.9406Z" fill="white"/>
</svg>
