<svg width="24" height="24" viewBox="0 0 24 24" fill="none" xmlns="http://www.w3.org/2000/svg">
<g clip-path="url(#clip0_540_5007)">
<path d="M1.68094 10.3453H1.24131C0.553418 10.3453 0 9.79191 0 9.10401V2.48368C0 1.98199 0.299984 1.52684 0.765476 1.33547C1.23097 1.1441 1.7637 1.24754 2.12058 1.60442L4.27218 3.75603C8.80297 -0.717869 16.1009 -0.702352 20.6058 3.80775C25.1314 8.33337 25.1314 15.6675 20.6058 20.1931C16.0802 24.7187 8.74608 24.7187 4.22046 20.1931C3.57395 19.5466 3.57395 18.4966 4.22046 17.8501C4.86698 17.2036 5.91692 17.2036 6.56344 17.8501C9.79602 21.0827 15.0354 21.0827 18.268 17.8501C21.5006 14.6175 21.5006 9.37814 18.268 6.14555C15.0509 2.92849 9.85292 2.91297 6.61516 6.09383L8.74091 8.22475C9.09779 8.58163 9.20123 9.11436 9.00986 9.57985C8.81849 10.0453 8.36334 10.3453 7.86165 10.3453H1.68094Z" fill="white"/>
</g>
<defs>
<clipPath id="clip0_540_5007">
<rect width="24" height="24" fill="white"/>
</clipPath>
</defs>
</svg>
