<svg width="24" height="24" viewBox="0 0 24 24" fill="none" xmlns="http://www.w3.org/2000/svg">
<path d="M0 5.4375C0 3.98965 1.19583 2.8125 2.66667 2.8125H21.3333C22.8042 2.8125 24 3.98965 24 5.4375V18.5625C24 20.0104 22.8042 21.1875 21.3333 21.1875H2.66667C1.19583 21.1875 0 20.0104 0 18.5625V5.4375ZM12.6667 9.04688V14.9531C12.6667 15.4986 13.1125 15.9375 13.6667 15.9375H16C18.2083 15.9375 20 14.1738 20 12C20 9.82617 18.2083 8.0625 16 8.0625H13.6667C13.1125 8.0625 12.6667 8.50137 12.6667 9.04688ZM14.6667 10.0312H16C17.1042 10.0312 18 10.9131 18 12C18 13.0869 17.1042 13.9688 16 13.9688H14.6667V10.0312ZM6.9625 10.0354C7.27083 9.93691 7.775 9.91641 8.47083 10.0066C8.68333 10.0354 9.35 10.1461 9.54167 10.1871C10.0458 10.302 10.5458 9.99023 10.6583 9.49395C10.7708 8.99766 10.4583 8.50547 9.95417 8.39473C9.68333 8.3332 8.95833 8.21426 8.71667 8.18555C7.92917 8.08301 7.09583 8.0584 6.38333 8.28809C5.6 8.53828 4.97083 9.09609 4.77917 10.023C4.775 10.0395 4.775 10.0559 4.77083 10.0723C4.7 10.5398 4.7625 10.991 4.97917 11.3971C5.19167 11.7908 5.51667 12.0574 5.83333 12.2461C6.40417 12.5824 7.14583 12.7506 7.7125 12.8818L7.78333 12.8982C8.45 13.05 8.9125 13.1648 9.20417 13.3371C9.32917 13.4109 9.3625 13.4602 9.36667 13.4725C9.37083 13.4766 9.39583 13.5217 9.375 13.6652C9.35833 13.776 9.325 13.8211 9.30417 13.8416C9.275 13.8703 9.20833 13.9236 9.0625 13.9688C8.74167 14.0672 8.225 14.0877 7.525 13.9934C7.21667 13.9523 6.67917 13.7965 6.21667 13.6652C6.1125 13.6365 6.00833 13.6078 5.91667 13.5791C5.42083 13.4396 4.90417 13.7227 4.7625 14.2107C4.62083 14.6988 4.90833 15.2074 5.40417 15.3469C5.46667 15.3633 5.54167 15.3838 5.625 15.4084C6.075 15.5396 6.80833 15.7488 7.26667 15.8145H7.27083C8.05833 15.917 8.90417 15.9416 9.62083 15.7201C9.99167 15.6053 10.3625 15.4125 10.6583 15.0967C10.9625 14.7768 11.15 14.3748 11.2167 13.9277C11.2875 13.4602 11.225 13.009 11.0083 12.6029C10.7958 12.2092 10.4708 11.9426 10.1542 11.7539C9.58333 11.4176 8.84167 11.2494 8.275 11.1182L8.20417 11.1018C7.5375 10.95 7.075 10.8352 6.78333 10.6629C6.65833 10.5891 6.625 10.5398 6.62083 10.5275C6.61667 10.5234 6.59583 10.4824 6.60833 10.3594C6.64583 10.1953 6.725 10.1051 6.95417 10.0312L6.9625 10.0354Z" fill="white"/>
</svg>
