<svg width="24" height="24" viewBox="0 0 24 24" fill="none" xmlns="http://www.w3.org/2000/svg">
<g clip-path="url(#clip0_513_4543)">
<g clip-path="url(#clip1_513_4543)">
<path d="M14.3156 1.02187C14.2547 0.534375 13.8891 0.140625 13.4016 0.084375C12.9422 0.028125 12.4734 0 12 0C11.4797 0 10.9641 0.0328125 10.4625 0.0984375C9.97969 0.159375 9.61875 0.553125 9.55781 1.03594L9.42188 2.11875C9.38437 2.41875 9.16875 2.6625 8.88281 2.76094C8.43281 2.91094 7.99219 3.09844 7.575 3.30937C7.30313 3.45 6.975 3.42656 6.73125 3.23906L5.8875 2.58281C5.50312 2.28281 4.96406 2.26406 4.57969 2.56406C3.80156 3.17344 3.10312 3.87656 2.49844 4.65938C2.20312 5.04375 2.22187 5.57812 2.52187 5.9625L3.1875 6.82031C3.375 7.05937 3.39375 7.38281 3.25781 7.65469C3.05156 8.06719 2.87344 8.49375 2.72813 8.93906C2.63438 9.22969 2.38594 9.44531 2.08594 9.48281L1.01719 9.61875C0.534375 9.67969 0.140625 10.0453 0.0796875 10.5281C0.0328125 11.0063 0 11.4984 0 12C0 12.4969 0.028125 12.9891 0.0890625 13.4719C0.15 13.9547 0.54375 14.3203 1.02656 14.3812L2.09531 14.5172C2.39531 14.5547 2.64375 14.7703 2.7375 15.0609C2.88281 15.5062 3.06094 15.9375 3.26719 16.35C3.40312 16.6219 3.37969 16.9453 3.19687 17.1844L2.53125 18.0375C2.23125 18.4219 2.2125 18.9563 2.50781 19.3406C3.1125 20.1234 3.81094 20.8266 4.58906 21.4359C4.97344 21.7359 5.5125 21.7172 5.89688 21.4172L6.74063 20.7609C6.97969 20.5734 7.3125 20.5547 7.58438 20.6906C8.00625 20.9062 8.44219 21.0891 8.89219 21.2391C9.17812 21.3375 9.39375 21.5812 9.43125 21.8812L9.56719 22.9641C9.62813 23.4469 9.98906 23.8406 10.4719 23.9016C10.9734 23.9672 11.4891 24 12.0094 24C12.4828 24 12.9516 23.9719 13.4109 23.9203C13.8984 23.8641 14.2641 23.4656 14.325 22.9828L14.4562 21.9281C14.4937 21.6234 14.7141 21.375 15.0047 21.2812C15.4734 21.1313 15.9281 20.9438 16.3641 20.7281C16.6359 20.5922 16.9594 20.6156 17.1984 20.7984L18.0469 21.4641C18.4312 21.7641 18.9656 21.7828 19.35 21.4875C19.4812 21.3844 19.6078 21.2812 19.7344 21.1734L21.1734 19.7344C21.2578 19.6313 21.3422 19.5281 21.4266 19.425C21.7313 19.0406 21.7078 18.5016 21.4078 18.1172L20.7516 17.2781C20.5641 17.0391 20.5453 16.7063 20.6813 16.4344C20.9062 15.9938 21.1031 15.5297 21.2578 15.0516C21.3516 14.7609 21.6 14.5453 21.9 14.5078L22.9688 14.3766C23.4516 14.3156 23.85 13.95 23.9062 13.4672C23.9156 13.3875 23.925 13.3031 23.9344 13.2234V10.7906C23.925 10.7109 23.9156 10.6266 23.9062 10.5469C23.8453 10.0641 23.4516 9.69844 22.9688 9.6375L21.9 9.50625C21.6 9.46875 21.3516 9.25313 21.2578 8.9625C21.0984 8.48438 20.9062 8.02031 20.6813 7.57969C20.5406 7.30781 20.5641 6.97969 20.7516 6.73594L21.4078 5.89688C21.7078 5.5125 21.7266 4.97344 21.4266 4.58906C21.3422 4.48594 21.2578 4.38281 21.1734 4.27969L19.7344 2.82656C19.6078 2.71875 19.4812 2.61562 19.35 2.5125C18.9656 2.2125 18.4312 2.23594 18.0469 2.53594L17.1891 3.20156C16.95 3.38906 16.6219 3.40781 16.3547 3.27188C15.9187 3.05625 15.4641 2.86875 14.9953 2.71875C14.7047 2.625 14.4844 2.37656 14.4469 2.07656L14.3156 1.02187ZM12 8.25C12.9946 8.25 13.9484 8.64509 14.6517 9.34835C15.3549 10.0516 15.75 11.0054 15.75 12C15.75 12.9946 15.3549 13.9484 14.6517 14.6517C13.9484 15.3549 12.9946 15.75 12 15.75C11.0054 15.75 10.0516 15.3549 9.34835 14.6517C8.64509 13.9484 8.25 12.9946 8.25 12C8.25 11.0054 8.64509 10.0516 9.34835 9.34835C10.0516 8.64509 11.0054 8.25 12 8.25Z" fill="white"/>
</g>
</g>
<defs>
<clipPath id="clip0_513_4543">
<rect width="24" height="24" fill="white"/>
</clipPath>
<clipPath id="clip1_513_4543">
<rect width="24" height="24" fill="white"/>
</clipPath>
</defs>
</svg>
