<svg width="24" height="24" viewBox="0 0 24 24" fill="none" xmlns="http://www.w3.org/2000/svg">
<g clip-path="url(#clip0_825_4465)">
<path d="M12 3.15L20.9188 12.5188C20.9688 12.5688 21 12.6438 21 12.7188C21 12.875 20.875 13.0063 20.7125 13.0063L17.5 13C16.6688 13 16 13.6688 16 14.5V21H8V14.5C8 13.6688 7.33125 13 6.5 13H3.2875C3.13125 13 3 12.875 3 12.7125C3 12.6375 3.03125 12.5687 3.08125 12.5125L12 3.15ZM24 12.7125C24 11.8687 23.675 11.0563 23.0938 10.4438L13.9312 0.825C13.425 0.3 12.7313 0 12 0C11.2688 0 10.575 0.3 10.0688 0.825L0.90625 10.45C0.325 11.0562 0 11.8687 0 12.7125C0 14.525 1.46875 16 3.2875 16H5V21C5 22.6562 6.34375 24 8 24H16C17.6562 24 19 22.6562 19 21V16H20.7125C22.525 16 24 14.5312 24 12.7125Z" fill="white"/>
</g>
<defs>
<clipPath id="clip0_825_4465">
<rect width="24" height="24" fill="white"/>
</clipPath>
</defs>
</svg>
