<svg width="24" height="24" viewBox="0 0 24 24" fill="none" xmlns="http://www.w3.org/2000/svg">
<path d="M18.9244 1.61402C19.4868 1.37969 20.1289 1.51091 20.56 1.93739L23.5595 4.93681C23.8407 5.218 24 5.59762 24 5.99598C24 6.39434 23.8407 6.77395 23.5595 7.05514L20.56 10.0546C20.1289 10.4857 19.4868 10.6123 18.9244 10.3779C18.362 10.1436 17.9965 9.59996 17.9965 8.9907V7.491H16.4968C16.0234 7.491 15.5782 7.71127 15.297 8.09088L13.3099 10.7482L11.4353 8.25022L12.8975 6.3006C13.7458 5.16645 15.0814 4.50096 16.4968 4.50096H17.9965V3.00125C17.9965 2.39668 18.362 1.84835 18.9244 1.61402ZM7.686 13.2508L9.56063 15.7488L8.09842 17.6984C7.25015 18.8325 5.91447 19.498 4.49912 19.498H1.49971C0.670182 19.498 0 18.8278 0 17.9983C0 17.1688 0.670182 16.4986 1.49971 16.4986H4.49912C4.97247 16.4986 5.41769 16.2783 5.69889 15.8987L7.686 13.2508ZM20.5554 22.0616C20.1242 22.4928 19.4821 22.6193 18.9197 22.385C18.3574 22.1506 17.9918 21.607 17.9918 20.9977V19.498H16.4921C15.0767 19.498 13.7411 18.8325 12.8928 17.6984L5.69889 8.10025C5.41769 7.72064 4.97247 7.50037 4.49912 7.50037H1.49971C0.670182 7.50037 0 6.83019 0 6.00066C0 5.17114 0.670182 4.50096 1.49971 4.50096H4.49912C5.91447 4.50096 7.25015 5.16645 8.09842 6.3006L15.297 15.8987C15.5782 16.2783 16.0234 16.4986 16.4968 16.4986H17.9965V14.9989C17.9965 14.3943 18.362 13.846 18.9244 13.6117C19.4868 13.3773 20.1289 13.5086 20.56 13.9351L23.5595 16.9345C23.8407 17.2157 24 17.5953 24 17.9936C24 18.392 23.8407 18.7716 23.5595 19.0528L20.56 22.0522L20.5554 22.0616Z" fill="white"/>
</svg>
