<svg width="24" height="24" viewBox="0 0 24 24" fill="none" xmlns="http://www.w3.org/2000/svg">
<g clip-path="url(#clip0_1022_5436)">
<path d="M20.5714 2.57143C21.0429 2.57143 21.4286 2.95714 21.4286 3.42857V20.5714C21.4286 21.0429 21.0429 21.4286 20.5714 21.4286H3.42857C2.95714 21.4286 2.57143 21.0429 2.57143 20.5714V3.42857C2.57143 2.95714 2.95714 2.57143 3.42857 2.57143H20.5714ZM3.42857 0C1.5375 0 0 1.5375 0 3.42857V20.5714C0 22.4625 1.5375 24 3.42857 24H20.5714C22.4625 24 24 22.4625 24 20.5714V3.42857C24 1.5375 22.4625 0 20.5714 0H3.42857Z" fill="white"/>
</g>
<defs>
<clipPath id="clip0_1022_5436">
<rect width="24" height="24" fill="white"/>
</clipPath>
</defs>
</svg>
