<svg width="24" height="24" viewBox="0 0 24 24" fill="none" xmlns="http://www.w3.org/2000/svg">
<g clip-path="url(#clip0_870_5006)">
<path d="M2.66667 4.96875C2.3 4.96875 2 5.26406 2 5.625V18.75C2 19.1109 2.3 19.4062 2.66667 19.4062H21.3333C21.7 19.4062 22 19.1109 22 18.75V5.625C22 5.26406 21.7 4.96875 21.3333 4.96875H2.66667ZM0 5.625C0 4.17715 1.19583 3 2.66667 3H21.3333C22.8042 3 24 4.17715 24 5.625V18.75C24 20.1979 22.8042 21.375 21.3333 21.375H2.66667C1.19583 21.375 0 20.1979 0 18.75V5.625ZM5 11.5312H12.3333C12.8875 11.5312 13.3333 11.9701 13.3333 12.5156C13.3333 13.0611 12.8875 13.5 12.3333 13.5H5C4.44583 13.5 4 13.0611 4 12.5156C4 11.9701 4.44583 11.5312 5 11.5312ZM15.6667 11.5312H19C19.5542 11.5312 20 11.9701 20 12.5156C20 13.0611 19.5542 13.5 19 13.5H15.6667C15.1125 13.5 14.6667 13.0611 14.6667 12.5156C14.6667 11.9701 15.1125 11.5312 15.6667 11.5312ZM5 15.4688H8.33333C8.8875 15.4688 9.33333 15.9076 9.33333 16.4531C9.33333 16.9986 8.8875 17.4375 8.33333 17.4375H5C4.44583 17.4375 4 16.9986 4 16.4531C4 15.9076 4.44583 15.4688 5 15.4688ZM11.6667 15.4688H19C19.5542 15.4688 20 15.9076 20 16.4531C20 16.9986 19.5542 17.4375 19 17.4375H11.6667C11.1125 17.4375 10.6667 16.9986 10.6667 16.4531C10.6667 15.9076 11.1125 15.4688 11.6667 15.4688Z" fill="white"/>
</g>
<defs>
<clipPath id="clip0_870_5006">
<rect width="24" height="24" fill="white"/>
</clipPath>
</defs>
</svg>
