<svg width="24" height="24" viewBox="0 0 24 24" fill="none" xmlns="http://www.w3.org/2000/svg">
<path d="M2.66667 2.8125C1.19583 2.8125 0 3.98965 0 5.4375V18.5625C0 20.0104 1.19583 21.1875 2.66667 21.1875H21.3333C22.8042 21.1875 24 20.0104 24 18.5625V5.4375C24 3.98965 22.8042 2.8125 21.3333 2.8125H2.66667ZM5 11.3438H12.3333C12.8875 11.3438 13.3333 11.7826 13.3333 12.3281C13.3333 12.8736 12.8875 13.3125 12.3333 13.3125H5C4.44583 13.3125 4 12.8736 4 12.3281C4 11.7826 4.44583 11.3438 5 11.3438ZM15.6667 11.3438H19C19.5542 11.3438 20 11.7826 20 12.3281C20 12.8736 19.5542 13.3125 19 13.3125H15.6667C15.1125 13.3125 14.6667 12.8736 14.6667 12.3281C14.6667 11.7826 15.1125 11.3438 15.6667 11.3438ZM5 15.2812H8.33333C8.8875 15.2812 9.33333 15.7201 9.33333 16.2656C9.33333 16.8111 8.8875 17.25 8.33333 17.25H5C4.44583 17.25 4 16.8111 4 16.2656C4 15.7201 4.44583 15.2812 5 15.2812ZM11.6667 15.2812H19C19.5542 15.2812 20 15.7201 20 16.2656C20 16.8111 19.5542 17.25 19 17.25H11.6667C11.1125 17.25 10.6667 16.8111 10.6667 16.2656C10.6667 15.7201 11.1125 15.2812 11.6667 15.2812Z" fill="white"/>
</svg>
