<svg width="24" height="24" viewBox="0 0 24 24" fill="none" xmlns="http://www.w3.org/2000/svg">
<path d="M7.8375 0.829688C8.09062 0.31875 8.61094 0 9.17813 0H14.8219C15.3891 0 15.9094 0.31875 16.1625 0.829688L16.5 1.5H21C21.8297 1.5 22.5 2.17031 22.5 3C22.5 3.82969 21.8297 4.5 21 4.5H3C2.17031 4.5 1.5 3.82969 1.5 3C1.5 2.17031 2.17031 1.5 3 1.5H7.5L7.8375 0.829688ZM3 6H21V21C21 22.6547 19.6547 24 18 24H6C4.34531 24 3 22.6547 3 21V6ZM7.5 9C7.0875 9 6.75 9.3375 6.75 9.75V20.25C6.75 20.6625 7.0875 21 7.5 21C7.9125 21 8.25 20.6625 8.25 20.25V9.75C8.25 9.3375 7.9125 9 7.5 9ZM12 9C11.5875 9 11.25 9.3375 11.25 9.75V20.25C11.25 20.6625 11.5875 21 12 21C12.4125 21 12.75 20.6625 12.75 20.25V9.75C12.75 9.3375 12.4125 9 12 9ZM16.5 9C16.0875 9 15.75 9.3375 15.75 9.75V20.25C15.75 20.6625 16.0875 21 16.5 21C16.9125 21 17.25 20.6625 17.25 20.25V9.75C17.25 9.3375 16.9125 9 16.5 9Z" fill="white"/>
</svg>
