<svg width="24" height="24" viewBox="0 0 24 24" fill="none" xmlns="http://www.w3.org/2000/svg">
<g clip-path="url(#clip0_516_4551)">
<g clip-path="url(#clip1_516_4551)">
<path d="M7.92188 0.328027C7.48125 -0.112598 6.76875 -0.112598 6.33281 0.328027C5.89688 0.768652 5.89219 1.48115 6.33281 1.91709L8.91094 4.49522L3.75 4.4999C1.67812 4.4999 0 6.17803 0 8.2499V20.2499C0 22.3218 1.67812 23.9999 3.75 23.9999H20.25C22.3219 23.9999 24 22.3218 24 20.2499V8.2499C24 6.17803 22.3219 4.4999 20.25 4.4999H15.0891L17.6672 1.92178C18.1078 1.48115 18.1078 0.768652 17.6672 0.332715C17.2266 -0.103223 16.5141 -0.10791 16.0781 0.332715L12 4.41084L7.92188 0.328027ZM19.875 10.8749C19.875 10.5765 19.9935 10.2904 20.2045 10.0794C20.4155 9.86843 20.7016 9.7499 21 9.7499C21.2984 9.7499 21.5845 9.86843 21.7955 10.0794C22.0065 10.2904 22.125 10.5765 22.125 10.8749C22.125 11.1733 22.0065 11.4594 21.7955 11.6704C21.5845 11.8814 21.2984 11.9999 21 11.9999C20.7016 11.9999 20.4155 11.8814 20.2045 11.6704C19.9935 11.4594 19.875 11.1733 19.875 10.8749ZM21 13.4999C21.2984 13.4999 21.5845 13.6184 21.7955 13.8294C22.0065 14.0404 22.125 14.3265 22.125 14.6249C22.125 14.9233 22.0065 15.2094 21.7955 15.4204C21.5845 15.6314 21.2984 15.7499 21 15.7499C20.7016 15.7499 20.4155 15.6314 20.2045 15.4204C19.9935 15.2094 19.875 14.9233 19.875 14.6249C19.875 14.3265 19.9935 14.0404 20.2045 13.8294C20.4155 13.6184 20.7016 13.4999 21 13.4999ZM3 10.4999C3 8.84522 4.34531 7.4999 6 7.4999H15C16.6547 7.4999 18 8.84522 18 10.4999V17.9999C18 19.6546 16.6547 20.9999 15 20.9999H6C4.34531 20.9999 3 19.6546 3 17.9999V10.4999Z" fill="white"/>
</g>
</g>
<defs>
<clipPath id="clip0_516_4551">
<rect width="24" height="24" fill="white"/>
</clipPath>
<clipPath id="clip1_516_4551">
<rect width="24" height="24" fill="white"/>
</clipPath>
</defs>
</svg>
