<svg width="24" height="24" viewBox="0 0 24 24" fill="none" xmlns="http://www.w3.org/2000/svg">
<path d="M19.9407 1.94067C20.5267 1.35474 21.4782 1.35474 22.0642 1.94067C22.6501 2.52661 22.6501 3.47817 22.0642 4.06411L14.1235 12L22.0595 19.9407C22.6454 20.5266 22.6454 21.4782 22.0595 22.0641C21.4735 22.65 20.522 22.65 19.936 22.0641L12.0001 14.1235L4.05947 22.0594C3.47354 22.6454 2.52197 22.6454 1.93604 22.0594C1.3501 21.4735 1.3501 20.5219 1.93604 19.936L9.87666 12L1.94072 4.05942C1.35479 3.47349 1.35479 2.52661 1.94072 1.94067C2.52666 1.35474 3.47822 1.35474 4.06416 1.94067L12.0001 9.87661L19.9407 1.94067Z" fill="white"/>
</svg>
