<svg width="116" height="42" viewBox="0 0 116 42" fill="none" xmlns="http://www.w3.org/2000/svg">
<g clip-path="url(#clip0_513_4305)">
<path d="M88.3039 18.2116C88.3039 16.5606 89.3788 15.8768 90.6194 15.8768C91.9645 15.8768 93.792 16.9466 95.2593 17.9941C96.9757 19.219 97.6171 18.9323 97.8472 16.8317C98.0595 14.8906 98.3686 13.0711 98.7398 11.4022C99.5113 7.94061 99.0655 7.37836 95.5317 7.37836H95.2894C93.1917 7.37836 93.0283 7.54347 93.0283 9.64743V9.65077C93.0283 10.2532 92.7826 10.3614 92.3402 9.95532C91.183 8.89554 88.6685 6.9868 85.5593 6.9868C81.2551 6.9868 75.5135 10.5231 75.5135 15.6938C75.5135 26.1299 88.5018 23.785 88.5018 29.1899C88.5018 31.4322 86.1129 31.7 84.7789 31.7C84.4743 31.7 84.1453 31.6341 83.8018 31.5148C82.5935 31.0976 82.579 31.073 82.7024 29.7957C82.7258 29.5592 82.7413 29.3294 82.7502 29.1085C82.8436 26.8249 82.2822 26.4367 80.1846 27.3236C79.601 27.5701 78.9629 27.7609 78.3882 27.7609C72.6978 27.7609 74.6909 20.9994 74.6909 15.7206C74.6909 10.4417 69.9976 6.9868 64.7574 6.9868C60.2253 6.9868 57.0483 9.58719 55.0363 12.1608C54.6316 12.6795 54.3749 12.626 54.207 11.989C53.43 9.02048 49.576 6.9868 45.2373 6.9868C40.8986 6.9868 37.2336 9.19451 34.718 12.0637C34.2744 12.5702 33.9309 12.4196 33.9999 11.7492C34.3478 8.38795 34.8436 5.98725 35.3705 4.27374C36.4655 0.709501 35.9441 0 32.2279 0H26.6131C23.5628 0 23.3249 0.239847 23.3249 3.29985V5.1807C23.3249 6.91763 23.2504 6.7648 24.63 7.81344C27.5869 10.0602 28.703 13.9033 28.703 17.8468C28.703 22.3125 27.2456 28.8753 23.5372 31.3117C21.981 32.3358 22.0488 32.2076 22.0488 34.075V38.3086C22.0488 41.3686 22.2878 41.6084 25.337 41.6084H36.8968C39.946 41.6084 40.1849 41.3686 40.1849 38.3086V34.0717C40.1849 32.3225 40.2583 32.4731 38.8621 31.4267C37.6271 30.5007 36.1842 28.5228 36.1842 25.7428C36.1842 17.9026 44.3925 16.6231 44.3925 22.4586C44.3925 26.0652 41.7535 29.8894 41.7535 33.9411C41.7535 39.403 44.8516 42 50.8121 42C54.9485 42 59.4083 37.5366 61.7672 34.7823C62.3363 34.1174 62.6898 34.2145 62.841 35.0779C63.3346 37.8947 65.1176 42 71.3305 42C74.3074 42 76.6207 40.8621 78.3637 39.1955C79.3264 38.2751 79.3775 38.2729 80.4569 39.0516C82.6202 40.6133 85.5193 42 88.9987 42C94.798 42 99.9993 38.7626 99.9993 30.706C99.9993 22.6494 88.3039 22.6817 88.3039 18.2116ZM63.2634 31.131C61.8328 31.131 64.335 26.0351 61.3837 26.0351C58.8736 26.0351 56.288 31.1087 54.1848 31.1087C48.8245 31.1087 52.6152 15.6893 54.6906 15.6893C55.9345 15.6893 53.7768 22.3549 55.7066 22.3549C57.3862 22.3549 58.479 18.9937 62.3752 18.9937C68.1913 18.9937 65.5489 31.131 63.2634 31.131Z" fill="white"/>
<path class="logo-accent" d="M8.50385 6.19252C5.62696 6.19252 0.371197 27.569 7.80242 27.569C10.7182 27.569 14.3032 20.5354 17.7826 20.5354C21.8745 20.5354 18.404 27.6003 20.3882 27.6003C23.5575 27.6003 27.2203 10.773 19.1566 10.773C13.7563 10.773 12.2411 15.4317 9.91228 15.4317C7.2366 15.4317 10.228 6.19141 8.50496 6.19141L8.50385 6.19252Z" fill="#39DDD8"/>
</g>
<defs>
<clipPath id="clip0_513_4305">
<rect width="96" height="42" fill="white" transform="translate(4)"/>
</clipPath>
</defs>
</svg>
